<?xml version="1.0" encoding="UTF-8" standalone="no"?>
<!-- Created with Inkscape (http://www.inkscape.org/) -->

<svg
   xmlns:dc="http://purl.org/dc/elements/1.1/"
   xmlns:cc="http://creativecommons.org/ns#"
   xmlns:rdf="http://www.w3.org/1999/02/22-rdf-syntax-ns#"
   xmlns:svg="http://www.w3.org/2000/svg"
   xmlns="http://www.w3.org/2000/svg"
   xmlns:xlink="http://www.w3.org/1999/xlink"
   xmlns:sodipodi="http://sodipodi.sourceforge.net/DTD/sodipodi-0.dtd"
   xmlns:inkscape="http://www.inkscape.org/namespaces/inkscape"
   width="74mm"
   height="52mm"
   viewBox="0 0 74 52"
   version="1.1"
   id="SVGRoot"
   inkscape:version="0.92.3 (2405546, 2018-03-11)"
   sodipodi:docname="targeta_A_01.svg"
   inkscape:export-filename="/home/jeroqui/Documents/coding-projects/web-projects/poder/src/targeta_a_01.png"
   inkscape:export-xdpi="144"
   inkscape:export-ydpi="144">
  <sodipodi:namedview
     id="base"
     pagecolor="#ffffff"
     bordercolor="#666666"
     borderopacity="1.0"
     inkscape:pageopacity="0.0"
     inkscape:pageshadow="2"
     inkscape:zoom="2"
     inkscape:cx="103.70614"
     inkscape:cy="47.367146"
     inkscape:document-units="mm"
     inkscape:current-layer="g1399"
     showgrid="false"
     inkscape:window-width="1366"
     inkscape:window-height="705"
     inkscape:window-x="0"
     inkscape:window-y="30"
     inkscape:window-maximized="1" />
  <defs
     id="defs815" />
  <metadata
     id="metadata818">
    <rdf:RDF>
      <cc:Work
         rdf:about="">
        <dc:format>image/svg+xml</dc:format>
        <dc:type
           rdf:resource="http://purl.org/dc/dcmitype/StillImage" />
        <dc:title></dc:title>
      </cc:Work>
    </rdf:RDF>
  </metadata>
  <g
     id="layer1"
     inkscape:groupmode="layer"
     inkscape:label="Layer 1">
    <text
       xml:space="preserve"
       style="font-size:2.46944356px;line-height:1.25;font-family:'Khmer Mondulkiri';-inkscape-font-specification:'Khmer Mondulkiri, Normal';text-align:justify;letter-spacing:0px;word-spacing:0px;writing-mode:lr-tb;stroke-width:0.26458332"
       x="19.579166"
       y="21.176041"
       id="text1376"><tspan
         sodipodi:role="line"
         id="tspan1374"
         x="19.579166"
         y="23.135418"
         style="stroke-width:0.26458332" /></text>
    <g
       id="g1399"
       transform="matrix(0.96014149,0,0,0.96014149,0.27117502,0.96216918)">
      <path
         sodipodi:nodetypes="csc"
         inkscape:connector-curvature="0"
         id="path1390"
         d="m 4.6302083,20.117708 c 0,0 18.8255297,-5.659884 34.7005297,-5.395301 15.875,0.264583 29.328636,5.130717 29.328636,5.130717"
         style="fill:none;stroke:none;stroke-width:0.26499999;stroke-linecap:butt;stroke-linejoin:miter;stroke-miterlimit:4;stroke-dasharray:none;stroke-opacity:1" />
      <text
         id="text1388"
         style="font-size:2.46944356px;line-height:1.25;font-family:'Khmer Mondulkiri';-inkscape-font-specification:'Khmer Mondulkiri, Normal';text-align:justify;letter-spacing:0px;word-spacing:0px;writing-mode:lr-tb;stroke-width:0.26458332"
         xml:space="preserve"
         transform="translate(1.912253)"><textPath
           id="textPath1392"
           xlink:href="#path1390"><tspan
             id="tspan1386"
             style="font-style:normal;font-variant:normal;font-weight:normal;font-stretch:normal;font-size:6.3499999px;font-family:EmbossedBlackWide;-inkscape-font-specification:'EmbossedBlackWide, Normal';font-variant-ligatures:normal;font-variant-caps:normal;font-variant-numeric:normal;font-feature-settings:normal;text-align:justify;writing-mode:lr-tb;text-anchor:start;stroke-width:0.26458332">Ventura &amp; Germans</tspan></textPath></text>
    </g>
    <flowRoot
       xml:space="preserve"
       id="flowRoot1378"
       style="font-style:normal;font-variant:normal;font-weight:normal;font-stretch:normal;font-size:48px;line-height:1.25;font-family:Daniel;-inkscape-font-specification:'Daniel, Normal';font-variant-ligatures:normal;font-variant-caps:normal;font-variant-numeric:normal;font-feature-settings:normal;text-align:justify;letter-spacing:0px;word-spacing:0px;writing-mode:lr-tb;text-anchor:start;fill:#000080;"
       transform="matrix(0.25086774,0.08408161,-0.08408161,0.25086774,12.866993,-13.449428)"><flowRegion
         id="flowRegion1380"
         style="font-style:normal;font-variant:normal;font-weight:normal;font-stretch:normal;font-size:48px;font-family:Daniel;-inkscape-font-specification:'Daniel, Normal';font-variant-ligatures:normal;font-variant-caps:normal;font-variant-numeric:normal;font-feature-settings:normal;text-align:justify;writing-mode:lr-tb;text-anchor:start;fill:#000080;"><rect
           id="rect1382"
           width="64.977837"
           height="60.276695"
           x="197"
           y="5.5354309"
           style="font-style:normal;font-variant:normal;font-weight:normal;font-stretch:normal;font-size:48px;font-family:Daniel;-inkscape-font-specification:'Daniel, Normal';font-variant-ligatures:normal;font-variant-caps:normal;font-variant-numeric:normal;font-feature-settings:normal;text-align:justify;writing-mode:lr-tb;text-anchor:start;fill:#000080;" /></flowRegion><flowPara
         id="flowPara1384"
         style="font-style:normal;font-variant:normal;font-weight:normal;font-stretch:normal;font-size:48px;font-family:Daniel;-inkscape-font-specification:'Daniel, Normal';font-variant-ligatures:normal;font-variant-caps:normal;font-variant-numeric:normal;font-feature-settings:normal;text-align:justify;writing-mode:lr-tb;text-anchor:start;fill:#000080;">A</flowPara></flowRoot>    <text
       xml:space="preserve"
       style="font-style:normal;font-variant:normal;font-weight:normal;font-stretch:normal;font-size:4.93888903px;line-height:1.25;font-family:'EB Garamond SC';-inkscape-font-specification:'EB Garamond SC, Normal';font-variant-ligatures:normal;font-variant-caps:normal;font-variant-numeric:normal;font-feature-settings:normal;text-align:justify;letter-spacing:0px;word-spacing:0px;writing-mode:lr-tb;text-anchor:start;stroke:none;stroke-width:0;stroke-miterlimit:4;stroke-dasharray:none;stroke-opacity:1"
       x="13.646502"
       y="22.862482"
       id="text1403"><tspan
         sodipodi:role="line"
         id="tspan1401"
         x="13.646502"
         y="22.862482"
         style="font-style:normal;font-variant:normal;font-weight:normal;font-stretch:normal;font-size:4.93888903px;font-family:'EB Garamond SC';-inkscape-font-specification:'EB Garamond SC, Normal';font-variant-ligatures:normal;font-variant-caps:normal;font-variant-numeric:normal;font-feature-settings:normal;text-align:justify;writing-mode:lr-tb;text-anchor:start;stroke:none;stroke-width:0;stroke-miterlimit:4;stroke-dasharray:none;stroke-opacity:1">Transports Maritims</tspan></text>
    <text
       xml:space="preserve"
       style="font-style:normal;font-variant:normal;font-weight:normal;font-stretch:normal;font-size:3.52777767px;line-height:1.25;font-family:'EB Garamond';-inkscape-font-specification:'EB Garamond, Normal';font-variant-ligatures:normal;font-variant-caps:normal;font-variant-numeric:normal;font-feature-settings:normal;text-align:justify;letter-spacing:0px;word-spacing:0px;writing-mode:lr-tb;text-anchor:start;stroke-width:0.26458332"
       x="17.271509"
       y="36.221493"
       id="text1449"><tspan
         sodipodi:role="line"
         id="tspan1447"
         x="17.271509"
         y="36.221493"
         style="font-style:normal;font-variant:normal;font-weight:normal;font-stretch:normal;font-size:3.52777767px;font-family:'EB Garamond';-inkscape-font-specification:'EB Garamond, Normal';font-variant-ligatures:normal;font-variant-caps:normal;font-variant-numeric:normal;font-feature-settings:normal;text-align:justify;writing-mode:lr-tb;text-anchor:start;stroke-width:0.26458332">C. de Corsega 502, Barcelona.</tspan></text>
    <text
       xml:space="preserve"
       style="font-style:normal;font-variant:normal;font-weight:normal;font-stretch:normal;font-size:2.11666656px;line-height:1.25;font-family:'EB Garamond';-inkscape-font-specification:'EB Garamond, Normal';font-variant-ligatures:normal;font-variant-caps:normal;font-variant-numeric:normal;font-feature-settings:normal;text-align:justify;letter-spacing:0px;word-spacing:0px;writing-mode:lr-tb;text-anchor:start;fill:#4d4d4d;stroke-width:0.26458332"
       x="27.416082"
       y="38.720268"
       id="text1449-7"><tspan
         sodipodi:role="line"
         id="tspan1447-3"
         x="27.416082"
         y="38.720268"
         style="font-style:normal;font-variant:normal;font-weight:normal;font-stretch:normal;font-size:2.11666656px;font-family:'EB Garamond';-inkscape-font-specification:'EB Garamond, Normal';font-variant-ligatures:normal;font-variant-caps:normal;font-variant-numeric:normal;font-feature-settings:normal;text-align:justify;writing-mode:lr-tb;text-anchor:start;fill:#4d4d4d;stroke-width:0.26458332">Entre Sicília i Cerdenya</tspan></text>
    <text
       xml:space="preserve"
       style="font-style:normal;font-variant:normal;font-weight:normal;font-stretch:normal;font-size:2.11666656px;line-height:1.25;font-family:'EB Garamond';-inkscape-font-specification:'EB Garamond, Normal';font-variant-ligatures:normal;font-variant-caps:normal;font-variant-numeric:normal;font-feature-settings:normal;text-align:justify;letter-spacing:0px;word-spacing:0px;writing-mode:lr-tb;text-anchor:start;fill:#4d4d4d;stroke-width:0.26458332"
       x="31.777786"
       y="25.326826"
       id="text1449-7-6"><tspan
         sodipodi:role="line"
         id="tspan1447-3-2"
         x="31.777786"
         y="25.326826"
         style="font-style:normal;font-variant:normal;font-weight:normal;font-stretch:normal;font-size:2.11666656px;font-family:'EB Garamond';-inkscape-font-specification:'EB Garamond, Normal';font-variant-ligatures:normal;font-variant-caps:normal;font-variant-numeric:normal;font-feature-settings:normal;text-align:justify;writing-mode:lr-tb;text-anchor:start;fill:#4d4d4d;stroke-width:0.26458332">DES DE 1845</tspan></text>
    <g
       style="fill:#333333;fill-opacity:1"
       id="Layer_x0020_1"
       transform="matrix(0.00952651,0,0,0.00952651,24.624817,40.286597)">
	<g
   style="fill:#333333;fill-opacity:1"
   id="_635827488">
		<path
   style="fill:#333333;fill-opacity:1"
   id="path2"
   d="m 2328.776,21.828 c -39.972,7.054 -84.433,23.086 -129.321,41.896 5.558,3.634 10.688,7.481 15.818,11.756 65.836,-27.36 132.742,-47.881 205.846,-39.972 176.561,19.238 158.178,170.362 99.61,200.074 -32.063,16.246 -109.229,10.474 -116.283,-55.79 -2.138,-20.307 2.992,-42.965 16.459,-57.714 7.696,-8.336 5.344,-6.84 14.963,-3.634 11.115,4.062 22.872,6.627 32.705,0.428 25.437,-16.245 -12.398,-46.385 -51.088,-16.887 -56.217,42.751 -39.544,165.66 75.883,158.178 85.074,-5.557 110.084,-115.855 60.065,-179.981 -48.309,-61.774 -148.56,-72.034 -224.657,-58.354 z"
   inkscape:connector-curvature="0" />

		<path
   style="fill:#333333;fill-opacity:1"
   id="path4"
   d="m 269.275,21.828 c 39.972,7.054 84.433,23.086 129.321,41.896 -5.557,3.634 -10.688,7.481 -15.818,11.756 C 316.942,48.12 250.036,27.599 176.932,35.508 0.371,54.746 18.755,205.871 77.323,235.583 c 32.063,16.246 109.229,10.474 116.283,-55.79 2.138,-20.307 -2.992,-42.965 -16.459,-57.714 -7.696,-8.336 -5.344,-6.84 -14.963,-3.634 -11.116,4.062 -22.872,6.627 -32.705,0.428 -25.437,-16.245 12.398,-46.385 51.088,-16.887 56.217,42.751 39.544,165.66 -75.883,158.178 C 19.609,254.607 -5.4,144.31 44.619,80.183 92.927,18.408 193.178,8.148 269.275,21.828 Z"
   inkscape:connector-curvature="0" />

		<path
   style="fill:#333333;fill-opacity:1"
   id="path6"
   d="m 2275.551,163.761 h 100.038 c 0.427,-5.344 1.069,-10.688 2.138,-15.818 H 2271.49 c 1.497,5.344 2.993,10.474 4.061,15.818 z"
   inkscape:connector-curvature="0" />

		<path
   style="fill:#333333;fill-opacity:1"
   id="path8"
   d="M 322.5,163.761 H 222.462 c -0.427,-5.344 -1.069,-10.688 -2.138,-15.818 h 106.237 c -1.497,5.344 -2.993,10.474 -4.061,15.818 z"
   inkscape:connector-curvature="0" />

		<path
   style="fill:#333333;fill-opacity:1"
   id="path10"
   d="m 2415.134,163.761 h 135.306 c 0.428,-5.344 0.428,-10.688 0,-15.818 h -131.887 c -1.71,5.13 -2.779,10.474 -3.419,15.818 z"
   inkscape:connector-curvature="0" />

		<path
   style="fill:#333333;fill-opacity:1"
   id="path12"
   d="M 182.917,163.761 H 47.611 c -0.428,-5.344 -0.428,-10.688 0,-15.818 h 131.887 c 1.71,5.13 2.779,10.474 3.419,15.818 z"
   inkscape:connector-curvature="0" />

		<path
   style="fill:#333333;fill-opacity:1"
   id="path14"
   d="m 2178.507,91.512 c -6.413,-4.061 -12.825,-7.695 -19.238,-10.688 -37.193,16.459 -73.959,33.559 -107.091,47.24 l -128.467,47.667 c -23.513,8.123 -70.753,20.521 -70.967,35.911 -0.214,17.528 33.559,10.688 33.987,-2.565 v -1.924 l 101.533,-35.483 c 54.935,-20.093 109.228,-43.606 163.309,-67.974 8.978,-4.061 17.957,-8.122 26.934,-12.184 z"
   inkscape:connector-curvature="0" />

		<path
   style="fill:#333333;fill-opacity:1"
   id="path16"
   d="m 419.544,91.512 c 6.413,-4.061 12.825,-7.695 19.238,-10.688 37.193,16.459 73.959,33.559 107.091,47.24 l 128.466,47.667 c 23.513,8.123 70.753,20.521 70.966,35.911 0.214,17.528 -33.559,10.688 -33.987,-2.565 v -1.924 L 609.786,171.67 C 554.851,151.577 500.558,128.064 446.477,103.696 437.5,99.635 428.521,95.574 419.544,91.512 Z"
   inkscape:connector-curvature="0" />

		<path
   style="fill:#333333;fill-opacity:1"
   id="path18"
   d="m 1967.532,147.943 h -111.367 l -7.482,3.634 c -8.336,4.061 -16.459,8.122 -24.795,12.184 h 101.107 z"
   inkscape:connector-curvature="0" />

		<path
   style="fill:#333333;fill-opacity:1"
   id="path20"
   d="m 630.519,147.943 h 111.367 l 7.482,3.634 c 8.336,4.061 16.459,8.122 24.795,12.184 H 673.057 Z"
   inkscape:connector-curvature="0" />

		<path
   style="fill:#333333;fill-opacity:1"
   id="path22"
   d="m 1345.506,163.761 h 317.853 c 2.138,-2.351 4.061,-4.916 5.985,-7.481 2.137,-2.565 4.061,-5.344 5.985,-8.336 h -329.824 v 15.817 z"
   inkscape:connector-curvature="0" />

		<path
   style="fill:#333333;fill-opacity:1"
   id="path24"
   d="M 1252.545,163.761 H 934.693 c -2.138,-2.351 -4.061,-4.916 -5.985,-7.481 -2.137,-2.565 -4.061,-5.344 -5.985,-8.336 h 329.824 v 15.817 z"
   inkscape:connector-curvature="0" />

		<path
   style="fill:#333333;fill-opacity:1"
   id="path26"
   d="m 2224.891,147.943 h -147.276 c -12.825,5.344 -25.651,10.688 -38.476,15.818 h 191.951 c -1.495,-5.344 -3.633,-10.688 -6.199,-15.818 z"
   inkscape:connector-curvature="0" />

		<path
   style="fill:#333333;fill-opacity:1"
   id="path28"
   d="m 373.16,147.943 h 147.276 c 12.825,5.344 25.651,10.688 38.476,15.818 H 366.961 c 1.495,-5.344 3.633,-10.688 6.199,-15.818 z"
   inkscape:connector-curvature="0" />

		<path
   style="fill:#333333;fill-opacity:1"
   id="path30"
   d="m 1927.345,51.326 c -66.691,22.23 -162.667,75.241 -230.855,115.641 4.703,-6.626 8.551,-13.039 11.757,-19.452 4.061,-8.764 7.268,-17.314 9.191,-26.292 2.352,-9.405 3.634,-19.238 3.42,-29.284 -0.428,-8.978 -1.924,-17.955 -4.917,-26.292 -3.634,-8.978 -8.978,-17.314 -16.246,-24.368 -6.84,-6.626 -15.39,-11.97 -25.223,-15.604 -9.619,-3.634 -20.734,-5.344 -31.422,-5.558 -11.115,0 -22.017,1.496 -30.994,4.703 -8.123,2.992 -14.749,7.268 -19.665,11.756 -6.413,6.199 -10.047,13.039 -10.902,18.811 -0.641,3.848 0,7.268 1.283,10.046 1.283,2.779 3.206,4.703 5.557,6.199 2.565,1.283 5.344,1.924 8.337,1.496 2.993,-0.427 5.985,-1.71 8.55,-4.275 5.985,-5.344 10.047,-16.459 13.895,-28.216 6.626,-2.138 15.176,-3.206 23.727,-3.206 8.764,0.214 17.956,1.71 25.65,4.489 7.482,2.779 13.895,6.84 19.239,11.756 5.344,5.13 9.405,11.329 11.97,18.169 2.352,6.413 3.634,13.467 3.848,20.521 0.213,8.336 -0.855,16.673 -2.993,25.009 -1.71,7.695 -4.275,15.176 -7.909,22.444 -3.634,7.481 -8.55,14.963 -14.535,23.086 -50.66,66.264 -162.881,100.892 -242.826,87.212 -61.134,-10.26 -111.579,-51.729 -106.877,-116.496 3.206,-47.667 53.011,-56.431 85.074,-49.591 5.131,11.115 11.33,25.223 22.231,31.422 17.314,9.833 36.979,-1.924 31.208,-19.238 -8.978,-26.933 -54.507,-38.689 -86.785,-34.628 -95.335,11.757 -84.006,110.084 -46.599,157.109 68.829,86.784 222.519,54.508 308.234,20.52 126.97,-50.66 325.976,-181.05 454.656,-177.63 37.621,0.855 65.195,9.191 92.556,29.284 104.953,77.379 46.171,193.234 -41.896,182.333 -18.81,-2.138 -35.269,-11.543 -49.377,-21.162 2.778,-17.742 5.558,-37.193 -7.268,-44.889 -25.864,-15.39 -66.264,36.552 19.665,77.379 99.61,47.24 203.281,-63.057 134.879,-166.301 C 2178.293,17.553 2029.734,17.126 1927.345,51.326 Z"
   inkscape:connector-curvature="0" />

		<path
   style="fill:#333333;fill-opacity:1"
   id="path32"
   d="m 670.706,51.326 c 66.691,22.23 162.667,75.241 230.855,115.641 -4.703,-6.626 -8.551,-13.039 -11.757,-19.452 -4.061,-8.764 -7.268,-17.314 -9.191,-26.292 -2.352,-9.405 -3.634,-19.238 -3.42,-29.284 0.428,-8.978 1.924,-17.955 4.917,-26.292 3.634,-8.978 8.978,-17.314 16.246,-24.368 6.84,-6.626 15.39,-11.97 25.223,-15.604 9.619,-3.634 20.734,-5.344 31.422,-5.558 11.115,0 22.017,1.496 30.994,4.703 8.123,2.992 14.749,7.268 19.665,11.756 6.413,6.199 10.047,13.039 10.902,18.811 0.641,3.848 0,7.268 -1.283,10.046 -1.283,2.779 -3.206,4.703 -5.557,6.199 -2.565,1.283 -5.344,1.924 -8.336,1.496 -2.993,-0.427 -5.985,-1.71 -8.55,-4.275 -5.985,-5.344 -10.047,-16.459 -13.895,-28.216 -6.626,-2.138 -15.176,-3.206 -23.727,-3.206 -8.764,0.214 -17.956,1.71 -25.65,4.489 -7.482,2.779 -13.895,6.84 -19.239,11.756 -5.343,5.13 -9.405,11.329 -11.97,18.169 -2.352,6.413 -3.634,13.467 -3.848,20.521 -0.213,8.336 0.855,16.673 2.993,25.009 1.71,7.695 4.275,15.176 7.909,22.444 3.634,7.481 8.55,14.963 14.535,23.086 50.66,66.264 162.881,100.892 242.826,87.212 61.134,-10.26 111.579,-51.729 106.877,-116.496 -3.206,-47.667 -53.011,-56.431 -85.074,-49.591 -5.131,11.115 -11.329,25.223 -22.231,31.422 -17.314,9.833 -36.979,-1.924 -31.208,-19.238 8.978,-26.933 54.508,-38.689 86.785,-34.628 95.335,11.757 84.006,110.084 46.599,157.109 -68.829,86.784 -222.519,54.508 -308.234,20.52 -126.97,-50.66 -325.976,-181.05 -454.656,-177.63 -37.621,0.855 -65.195,9.191 -92.556,29.284 -104.953,77.379 -46.17,193.234 41.896,182.333 18.81,-2.138 35.269,-11.543 49.377,-21.162 -2.778,-17.742 -5.558,-37.193 7.268,-44.889 25.864,-15.39 66.264,36.552 -19.665,77.379 C 388.338,331.77 284.667,221.473 353.069,118.229 419.758,17.553 568.317,17.126 670.706,51.326 Z"
   inkscape:connector-curvature="0" />

	</g>

</g>
    <g
       transform="matrix(0.00952651,0,0,-0.01023776,24.624817,32.656903)"
       id="g1589"
       style="fill:#333333;fill-opacity:1">
	<g
   id="g1587"
   style="fill:#333333;fill-opacity:1">
		<path
   inkscape:connector-curvature="0"
   d="m 2328.776,21.828 c -39.972,7.054 -84.433,23.086 -129.321,41.896 5.558,3.634 10.688,7.481 15.818,11.756 65.836,-27.36 132.742,-47.881 205.846,-39.972 176.561,19.238 158.178,170.362 99.61,200.074 -32.063,16.246 -109.229,10.474 -116.283,-55.79 -2.138,-20.307 2.992,-42.965 16.459,-57.714 7.696,-8.336 5.344,-6.84 14.963,-3.634 11.115,4.062 22.872,6.627 32.705,0.428 25.437,-16.245 -12.398,-46.385 -51.088,-16.887 -56.217,42.751 -39.544,165.66 75.883,158.178 85.074,-5.557 110.084,-115.855 60.065,-179.981 -48.309,-61.774 -148.56,-72.034 -224.657,-58.354 z"
   id="path1555"
   style="fill:#333333;fill-opacity:1" />

		<path
   inkscape:connector-curvature="0"
   d="m 269.275,21.828 c 39.972,7.054 84.433,23.086 129.321,41.896 -5.557,3.634 -10.688,7.481 -15.818,11.756 C 316.942,48.12 250.036,27.599 176.932,35.508 0.371,54.746 18.755,205.871 77.323,235.583 c 32.063,16.246 109.229,10.474 116.283,-55.79 2.138,-20.307 -2.992,-42.965 -16.459,-57.714 -7.696,-8.336 -5.344,-6.84 -14.963,-3.634 -11.116,4.062 -22.872,6.627 -32.705,0.428 -25.437,-16.245 12.398,-46.385 51.088,-16.887 56.217,42.751 39.544,165.66 -75.883,158.178 C 19.609,254.607 -5.4,144.31 44.619,80.183 92.927,18.408 193.178,8.148 269.275,21.828 Z"
   id="path1557"
   style="fill:#333333;fill-opacity:1" />

		<path
   inkscape:connector-curvature="0"
   d="m 2275.551,163.761 h 100.038 c 0.427,-5.344 1.069,-10.688 2.138,-15.818 H 2271.49 c 1.497,5.344 2.993,10.474 4.061,15.818 z"
   id="path1559"
   style="fill:#333333;fill-opacity:1" />

		<path
   inkscape:connector-curvature="0"
   d="M 322.5,163.761 H 222.462 c -0.427,-5.344 -1.069,-10.688 -2.138,-15.818 h 106.237 c -1.497,5.344 -2.993,10.474 -4.061,15.818 z"
   id="path1561"
   style="fill:#333333;fill-opacity:1" />

		<path
   inkscape:connector-curvature="0"
   d="m 2415.134,163.761 h 135.306 c 0.428,-5.344 0.428,-10.688 0,-15.818 h -131.887 c -1.71,5.13 -2.779,10.474 -3.419,15.818 z"
   id="path1563"
   style="fill:#333333;fill-opacity:1" />

		<path
   inkscape:connector-curvature="0"
   d="M 182.917,163.761 H 47.611 c -0.428,-5.344 -0.428,-10.688 0,-15.818 h 131.887 c 1.71,5.13 2.779,10.474 3.419,15.818 z"
   id="path1565"
   style="fill:#333333;fill-opacity:1" />

		<path
   inkscape:connector-curvature="0"
   d="m 2178.507,91.512 c -6.413,-4.061 -12.825,-7.695 -19.238,-10.688 -37.193,16.459 -73.959,33.559 -107.091,47.24 l -128.467,47.667 c -23.513,8.123 -70.753,20.521 -70.967,35.911 -0.214,17.528 33.559,10.688 33.987,-2.565 v -1.924 l 101.533,-35.483 c 54.935,-20.093 109.228,-43.606 163.309,-67.974 8.978,-4.061 17.957,-8.122 26.934,-12.184 z"
   id="path1567"
   style="fill:#333333;fill-opacity:1" />

		<path
   inkscape:connector-curvature="0"
   d="m 419.544,91.512 c 6.413,-4.061 12.825,-7.695 19.238,-10.688 37.193,16.459 73.959,33.559 107.091,47.24 l 128.466,47.667 c 23.513,8.123 70.753,20.521 70.966,35.911 0.214,17.528 -33.559,10.688 -33.987,-2.565 v -1.924 L 609.786,171.67 C 554.851,151.577 500.558,128.064 446.477,103.696 437.5,99.635 428.521,95.574 419.544,91.512 Z"
   id="path1569"
   style="fill:#333333;fill-opacity:1" />

		<path
   inkscape:connector-curvature="0"
   d="m 1967.532,147.943 h -111.367 l -7.482,3.634 c -8.336,4.061 -16.459,8.122 -24.795,12.184 h 101.107 z"
   id="path1571"
   style="fill:#333333;fill-opacity:1" />

		<path
   inkscape:connector-curvature="0"
   d="m 630.519,147.943 h 111.367 l 7.482,3.634 c 8.336,4.061 16.459,8.122 24.795,12.184 H 673.057 Z"
   id="path1573"
   style="fill:#333333;fill-opacity:1" />

		<path
   inkscape:connector-curvature="0"
   d="m 1345.506,163.761 h 317.853 c 2.138,-2.351 4.061,-4.916 5.985,-7.481 2.137,-2.565 4.061,-5.344 5.985,-8.336 h -329.824 v 15.817 z"
   id="path1575"
   style="fill:#333333;fill-opacity:1" />

		<path
   inkscape:connector-curvature="0"
   d="M 1252.545,163.761 H 934.693 c -2.138,-2.351 -4.061,-4.916 -5.985,-7.481 -2.137,-2.565 -4.061,-5.344 -5.985,-8.336 h 329.824 v 15.817 z"
   id="path1577"
   style="fill:#333333;fill-opacity:1" />

		<path
   inkscape:connector-curvature="0"
   d="m 2224.891,147.943 h -147.276 c -12.825,5.344 -25.651,10.688 -38.476,15.818 h 191.951 c -1.495,-5.344 -3.633,-10.688 -6.199,-15.818 z"
   id="path1579"
   style="fill:#333333;fill-opacity:1" />

		<path
   inkscape:connector-curvature="0"
   d="m 373.16,147.943 h 147.276 c 12.825,5.344 25.651,10.688 38.476,15.818 H 366.961 c 1.495,-5.344 3.633,-10.688 6.199,-15.818 z"
   id="path1581"
   style="fill:#333333;fill-opacity:1" />

		<path
   inkscape:connector-curvature="0"
   d="m 1927.345,51.326 c -66.691,22.23 -162.667,75.241 -230.855,115.641 4.703,-6.626 8.551,-13.039 11.757,-19.452 4.061,-8.764 7.268,-17.314 9.191,-26.292 2.352,-9.405 3.634,-19.238 3.42,-29.284 -0.428,-8.978 -1.924,-17.955 -4.917,-26.292 -3.634,-8.978 -8.978,-17.314 -16.246,-24.368 -6.84,-6.626 -15.39,-11.97 -25.223,-15.604 -9.619,-3.634 -20.734,-5.344 -31.422,-5.558 -11.115,0 -22.017,1.496 -30.994,4.703 -8.123,2.992 -14.749,7.268 -19.665,11.756 -6.413,6.199 -10.047,13.039 -10.902,18.811 -0.641,3.848 0,7.268 1.283,10.046 1.283,2.779 3.206,4.703 5.557,6.199 2.565,1.283 5.344,1.924 8.337,1.496 2.993,-0.427 5.985,-1.71 8.55,-4.275 5.985,-5.344 10.047,-16.459 13.895,-28.216 6.626,-2.138 15.176,-3.206 23.727,-3.206 8.764,0.214 17.956,1.71 25.65,4.489 7.482,2.779 13.895,6.84 19.239,11.756 5.344,5.13 9.405,11.329 11.97,18.169 2.352,6.413 3.634,13.467 3.848,20.521 0.213,8.336 -0.855,16.673 -2.993,25.009 -1.71,7.695 -4.275,15.176 -7.909,22.444 -3.634,7.481 -8.55,14.963 -14.535,23.086 -50.66,66.264 -162.881,100.892 -242.826,87.212 -61.134,-10.26 -111.579,-51.729 -106.877,-116.496 3.206,-47.667 53.011,-56.431 85.074,-49.591 5.131,11.115 11.33,25.223 22.231,31.422 17.314,9.833 36.979,-1.924 31.208,-19.238 -8.978,-26.933 -54.507,-38.689 -86.785,-34.628 -95.335,11.757 -84.006,110.084 -46.599,157.109 68.829,86.784 222.519,54.508 308.234,20.52 126.97,-50.66 325.976,-181.05 454.656,-177.63 37.621,0.855 65.195,9.191 92.556,29.284 104.953,77.379 46.171,193.234 -41.896,182.333 -18.81,-2.138 -35.269,-11.543 -49.377,-21.162 2.778,-17.742 5.558,-37.193 -7.268,-44.889 -25.864,-15.39 -66.264,36.552 19.665,77.379 99.61,47.24 203.281,-63.057 134.879,-166.301 C 2178.293,17.553 2029.734,17.126 1927.345,51.326 Z"
   id="path1583"
   style="fill:#333333;fill-opacity:1" />

		<path
   inkscape:connector-curvature="0"
   d="m 670.706,51.326 c 66.691,22.23 162.667,75.241 230.855,115.641 -4.703,-6.626 -8.551,-13.039 -11.757,-19.452 -4.061,-8.764 -7.268,-17.314 -9.191,-26.292 -2.352,-9.405 -3.634,-19.238 -3.42,-29.284 0.428,-8.978 1.924,-17.955 4.917,-26.292 3.634,-8.978 8.978,-17.314 16.246,-24.368 6.84,-6.626 15.39,-11.97 25.223,-15.604 9.619,-3.634 20.734,-5.344 31.422,-5.558 11.115,0 22.017,1.496 30.994,4.703 8.123,2.992 14.749,7.268 19.665,11.756 6.413,6.199 10.047,13.039 10.902,18.811 0.641,3.848 0,7.268 -1.283,10.046 -1.283,2.779 -3.206,4.703 -5.557,6.199 -2.565,1.283 -5.344,1.924 -8.336,1.496 -2.993,-0.427 -5.985,-1.71 -8.55,-4.275 -5.985,-5.344 -10.047,-16.459 -13.895,-28.216 -6.626,-2.138 -15.176,-3.206 -23.727,-3.206 -8.764,0.214 -17.956,1.71 -25.65,4.489 -7.482,2.779 -13.895,6.84 -19.239,11.756 -5.343,5.13 -9.405,11.329 -11.97,18.169 -2.352,6.413 -3.634,13.467 -3.848,20.521 -0.213,8.336 0.855,16.673 2.993,25.009 1.71,7.695 4.275,15.176 7.909,22.444 3.634,7.481 8.55,14.963 14.535,23.086 50.66,66.264 162.881,100.892 242.826,87.212 61.134,-10.26 111.579,-51.729 106.877,-116.496 -3.206,-47.667 -53.011,-56.431 -85.074,-49.591 -5.131,11.115 -11.329,25.223 -22.231,31.422 -17.314,9.833 -36.979,-1.924 -31.208,-19.238 8.978,-26.933 54.508,-38.689 86.785,-34.628 95.335,11.757 84.006,110.084 46.599,157.109 -68.829,86.784 -222.519,54.508 -308.234,20.52 -126.97,-50.66 -325.976,-181.05 -454.656,-177.63 -37.621,0.855 -65.195,9.191 -92.556,29.284 -104.953,77.379 -46.17,193.234 41.896,182.333 18.81,-2.138 35.269,-11.543 49.377,-21.162 -2.778,-17.742 -5.558,-37.193 7.268,-44.889 25.864,-15.39 66.264,36.552 -19.665,77.379 C 388.338,331.77 284.667,221.473 353.069,118.229 419.758,17.553 568.317,17.126 670.706,51.326 Z"
   id="path1585"
   style="fill:#333333;fill-opacity:1" />

	</g>

</g>
    <path
       style="fill:none;stroke:#4d4d4d;stroke-width:0.26499999;stroke-linecap:round;stroke-linejoin:bevel;stroke-miterlimit:4;stroke-dasharray:none;stroke-opacity:1"
       d="m 30.1625,24.747925 c 0,0 -11.471877,0 -18.190104,0 -0.888893,0 -2.2517327,0.349594 -2.6530417,0.269332 C 8.6762371,24.888633 8.6452288,24.128689 9.202424,23.883031 9.7596193,23.637373 9.9975509,24.280595 9.775383,24.444297 9.553215,24.608 9.3310473,24.514457 9.2725821,24.33906"
       id="path1591"
       inkscape:connector-curvature="0"
       sodipodi:nodetypes="csszsc" />
    <path
       sodipodi:nodetypes="csszsc"
       inkscape:connector-curvature="0"
       id="path1593"
       d="m 43.788132,24.775513 c 0,0 11.199122,0 17.757616,0 0.867759,0 2.198196,0.350461 2.589963,0.27 0.627826,-0.128943 0.658098,-0.890772 0.11415,-1.137039 -0.543947,-0.246268 -0.776222,0.39855 -0.559336,0.562658 0.216886,0.164109 0.433771,0.07033 0.490847,-0.105498"
       style="fill:none;stroke:#4d4d4d;stroke-width:0.26215526;stroke-linecap:round;stroke-linejoin:bevel;stroke-miterlimit:4;stroke-dasharray:none;stroke-opacity:1" />
    <text
       xml:space="preserve"
       style="font-style:normal;font-variant:normal;font-weight:normal;font-stretch:normal;font-size:2.46944451px;line-height:1.25;font-family:Daniel;-inkscape-font-specification:'Daniel, Normal';font-variant-ligatures:normal;font-variant-caps:normal;font-variant-numeric:normal;font-feature-settings:normal;text-align:justify;letter-spacing:0px;word-spacing:0px;writing-mode:lr-tb;text-anchor:start;stroke-width:0.26458332;fill:#000080;"
       x="6.5253019"
       y="45.014538"
       id="text1597"
       transform="rotate(4.2689614)"><tspan
         sodipodi:role="line"
         id="tspan1595"
         x="6.5253019"
         y="45.014538"
         style="font-style:normal;font-variant:normal;font-weight:normal;font-stretch:normal;font-size:2.46944451px;font-family:Daniel;-inkscape-font-specification:'Daniel, Normal';font-variant-ligatures:normal;font-variant-caps:normal;font-variant-numeric:normal;font-feature-settings:normal;text-align:justify;writing-mode:lr-tb;text-anchor:start;stroke-width:0.26458332;fill:#000080;">Contactar amb M. Ballart</tspan></text>
    <text
       transform="rotate(4.2689614)"
       id="text1601"
       y="47.881397"
       x="8.9945154"
       style="font-style:normal;font-variant:normal;font-weight:normal;font-stretch:normal;font-size:2.46944451px;line-height:1.25;font-family:Daniel;-inkscape-font-specification:'Daniel, Normal';font-variant-ligatures:normal;font-variant-caps:normal;font-variant-numeric:normal;font-feature-settings:normal;text-align:justify;letter-spacing:0px;word-spacing:0px;writing-mode:lr-tb;text-anchor:start;fill:#000080;stroke-width:0.26458332"
       xml:space="preserve"><tspan
         style="font-style:normal;font-variant:normal;font-weight:normal;font-stretch:normal;font-size:2.46944451px;font-family:Daniel;-inkscape-font-specification:'Daniel, Normal';font-variant-ligatures:normal;font-variant-caps:normal;font-variant-numeric:normal;font-feature-settings:normal;text-align:justify;writing-mode:lr-tb;text-anchor:start;fill:#000080;stroke-width:0.26458332"
         y="47.881397"
         x="8.9945154"
         id="tspan1599"
         sodipodi:role="line">Angar nª 28c</tspan></text>
    <text
       xml:space="preserve"
       style="font-size:2.46944356px;line-height:1.25;font-family:'Khmer Mondulkiri';-inkscape-font-specification:'Khmer Mondulkiri, Normal';text-align:justify;letter-spacing:0px;word-spacing:0px;writing-mode:lr-tb;stroke-width:0.26458332"
       x="63.103123"
       y="45.385414"
       id="text1624"><tspan
         sodipodi:role="line"
         id="tspan1622"
         x="63.103123"
         y="47.344791"
         style="stroke-width:0.26458332"></tspan></text>
    <text
       xml:space="preserve"
       style="font-style:normal;font-variant:normal;font-weight:normal;font-stretch:normal;font-size:5.12361622px;line-height:1.25;font-family:Daniel;-inkscape-font-specification:'Daniel, Normal';font-variant-ligatures:normal;font-variant-caps:normal;font-variant-numeric:normal;font-feature-settings:normal;text-align:justify;letter-spacing:0px;word-spacing:0px;writing-mode:lr-tb;text-anchor:start;fill:#000080;stroke-width:0.54895884"
       x="13.232543"
       y="61.494484"
       id="text1628"
       transform="matrix(1.2958669,0.18726281,-0.03584582,0.76650419,0,0)"><tspan
         sodipodi:role="line"
         id="tspan1626"
         x="13.232543"
         y="61.494484"
         style="font-style:normal;font-variant:normal;font-weight:normal;font-stretch:normal;font-size:5.12361622px;font-family:Daniel;-inkscape-font-specification:'Daniel, Normal';font-variant-ligatures:normal;font-variant-caps:normal;font-variant-numeric:normal;font-feature-settings:normal;text-align:justify;writing-mode:lr-tb;text-anchor:start;fill:#000080;stroke-width:0.54895884">O</tspan></text>
    <text
       transform="matrix(1.254711,0.37421732,-0.14723,0.75308495,0,0)"
       id="text1632"
       y="55.759048"
       x="18.614985"
       style="font-style:normal;font-variant:normal;font-weight:normal;font-stretch:normal;font-size:5.12361622px;line-height:1.25;font-family:Daniel;-inkscape-font-specification:'Daniel, Normal';font-variant-ligatures:normal;font-variant-caps:normal;font-variant-numeric:normal;font-feature-settings:normal;text-align:justify;letter-spacing:0px;word-spacing:0px;writing-mode:lr-tb;text-anchor:start;fill:#000080;stroke-width:0.54895884"
       xml:space="preserve"><tspan
         style="font-style:normal;font-variant:normal;font-weight:normal;font-stretch:normal;font-size:5.12361622px;font-family:Daniel;-inkscape-font-specification:'Daniel, Normal';font-variant-ligatures:normal;font-variant-caps:normal;font-variant-numeric:normal;font-feature-settings:normal;text-align:justify;writing-mode:lr-tb;text-anchor:start;fill:#000080;stroke-width:0.54895884"
         y="55.759048"
         x="18.614985"
         id="tspan1630"
         sodipodi:role="line">O</tspan></text>
  </g>
</svg>
