<?xml version="1.0" encoding="UTF-8" standalone="no"?>
<!-- Created with Inkscape (http://www.inkscape.org/) -->

<svg
   xmlns:dc="http://purl.org/dc/elements/1.1/"
   xmlns:cc="http://creativecommons.org/ns#"
   xmlns:rdf="http://www.w3.org/1999/02/22-rdf-syntax-ns#"
   xmlns:svg="http://www.w3.org/2000/svg"
   xmlns="http://www.w3.org/2000/svg"
   xmlns:xlink="http://www.w3.org/1999/xlink"
   xmlns:sodipodi="http://sodipodi.sourceforge.net/DTD/sodipodi-0.dtd"
   xmlns:inkscape="http://www.inkscape.org/namespaces/inkscape"
   width="74mm"
   height="52mm"
   viewBox="0 0 74 52"
   version="1.1"
   id="SVGRoot"
   inkscape:version="0.92.3 (2405546, 2018-03-11)"
   sodipodi:docname="targeta_D_01.svg"
   inkscape:export-filename="/home/jeroqui/Documents/coding-projects/web-projects/poder/src/targeta_D_01.png"
   inkscape:export-xdpi="144"
   inkscape:export-ydpi="144">
  <sodipodi:namedview
     id="base"
     pagecolor="#ffffff"
     bordercolor="#666666"
     borderopacity="1.0"
     inkscape:pageopacity="0.0"
     inkscape:pageshadow="2"
     inkscape:zoom="2"
     inkscape:cx="94.66931"
     inkscape:cy="90.184635"
     inkscape:document-units="mm"
     inkscape:current-layer="layer1"
     showgrid="false"
     inkscape:window-width="1366"
     inkscape:window-height="705"
     inkscape:window-x="0"
     inkscape:window-y="30"
     inkscape:window-maximized="1" />
  <defs
     id="defs815" />
  <metadata
     id="metadata818">
    <rdf:RDF>
      <cc:Work
         rdf:about="">
        <dc:format>image/svg+xml</dc:format>
        <dc:type
           rdf:resource="http://purl.org/dc/dcmitype/StillImage" />
        <dc:title />
      </cc:Work>
    </rdf:RDF>
  </metadata>
  <g
     id="layer1"
     inkscape:groupmode="layer"
     inkscape:label="Layer 1">
    <text
       xml:space="preserve"
       style="font-size:2.46944356px;line-height:1.25;font-family:'Khmer Mondulkiri';-inkscape-font-specification:'Khmer Mondulkiri, Normal';text-align:justify;letter-spacing:0px;word-spacing:0px;writing-mode:lr-tb;stroke-width:0.26458332"
       x="19.579166"
       y="21.176041"
       id="text1376"><tspan
         sodipodi:role="line"
         id="tspan1374"
         x="19.579166"
         y="23.135418"
         style="stroke-width:0.26458332" /></text>
    <text
       xml:space="preserve"
       style="font-style:normal;font-variant:normal;font-weight:normal;font-stretch:normal;font-size:2.74008965px;line-height:1.25;font-family:'EB Garamond';-inkscape-font-specification:'EB Garamond, Normal';font-variant-ligatures:normal;font-variant-caps:normal;font-variant-numeric:normal;font-feature-settings:normal;text-align:justify;letter-spacing:0px;word-spacing:0px;writing-mode:lr-tb;text-anchor:start;stroke-width:0.25688246"
       x="9.1538649"
       y="29.366043"
       id="text1449"><tspan
         sodipodi:role="line"
         id="tspan1447"
         x="9.1538649"
         y="29.366043"
         style="font-style:normal;font-variant:normal;font-weight:normal;font-stretch:normal;font-size:2.74008965px;font-family:'EB Garamond';-inkscape-font-specification:'EB Garamond, Normal';font-variant-ligatures:normal;font-variant-caps:normal;font-variant-numeric:normal;font-feature-settings:normal;text-align:justify;writing-mode:lr-tb;text-anchor:start;stroke-width:0.25688246">C. Princep 48, Vilafosca P.</tspan></text>
    <text
       xml:space="preserve"
       style="font-style:normal;font-variant:normal;font-weight:normal;font-stretch:normal;font-size:2.28969216px;line-height:1.25;font-family:'EB Garamond';-inkscape-font-specification:'EB Garamond, Normal';font-variant-ligatures:normal;font-variant-caps:normal;font-variant-numeric:normal;font-feature-settings:normal;text-align:justify;letter-spacing:0px;word-spacing:0px;writing-mode:lr-tb;text-anchor:start;fill:#4d4d4d;stroke-width:0.21465786"
       x="9.2793255"
       y="31.69706"
       id="text1449-7"><tspan
         sodipodi:role="line"
         id="tspan1447-3"
         x="9.2793255"
         y="31.69706"
         style="font-style:normal;font-variant:normal;font-weight:normal;font-stretch:normal;font-size:2.28969216px;font-family:'EB Garamond';-inkscape-font-specification:'EB Garamond, Normal';font-variant-ligatures:normal;font-variant-caps:normal;font-variant-numeric:normal;font-feature-settings:normal;text-align:justify;writing-mode:lr-tb;text-anchor:start;fill:#4d4d4d;stroke-width:0.21465786">Cantonada C. Formos</tspan></text>
    <text
       xml:space="preserve"
       style="font-style:italic;font-variant:normal;font-weight:normal;font-stretch:normal;font-size:3.12027693px;line-height:1.25;font-family:'EB Garamond';-inkscape-font-specification:'EB Garamond, Italic';font-variant-ligatures:normal;font-variant-caps:normal;font-variant-numeric:normal;font-feature-settings:normal;text-align:justify;letter-spacing:0px;word-spacing:0px;writing-mode:lr-tb;text-anchor:start;fill:#000000;stroke-width:0.39003602"
       x="3.3179595"
       y="21.396393"
       id="text1449-7-6"><tspan
         sodipodi:role="line"
         id="tspan1447-3-2"
         x="3.3179595"
         y="21.396393"
         style="font-style:italic;font-variant:normal;font-weight:normal;font-stretch:normal;font-size:3.12027693px;font-family:'EB Garamond';-inkscape-font-specification:'EB Garamond, Italic';font-variant-ligatures:normal;font-variant-caps:normal;font-variant-numeric:normal;font-feature-settings:normal;text-align:justify;writing-mode:lr-tb;text-anchor:start;fill:#000000;stroke-width:0.39003602">Els millors barbers des de 1902</tspan></text>
    <text
       xml:space="preserve"
       style="font-style:normal;font-variant:normal;font-weight:normal;font-stretch:normal;font-size:2.23581576px;line-height:1.25;font-family:Daniel;-inkscape-font-specification:'Daniel, Normal';font-variant-ligatures:normal;font-variant-caps:normal;font-variant-numeric:normal;font-feature-settings:normal;text-align:justify;letter-spacing:0px;word-spacing:0px;writing-mode:lr-tb;text-anchor:start;fill:#000080;stroke-width:0.23955168"
       x="41.86615"
       y="50.524525"
       id="text1597"
       transform="rotate(-2.1696865)"><tspan
         sodipodi:role="line"
         id="tspan1595"
         x="41.86615"
         y="50.524525"
         style="font-style:normal;font-variant:normal;font-weight:normal;font-stretch:normal;font-size:2.23581576px;font-family:Daniel;-inkscape-font-specification:'Daniel, Normal';font-variant-ligatures:normal;font-variant-caps:normal;font-variant-numeric:normal;font-feature-settings:normal;text-align:justify;writing-mode:lr-tb;text-anchor:start;fill:#000080;stroke-width:0.23955168">Contactar amb J. Garcia</tspan></text>
    <text
       transform="rotate(-2.1696865)"
       id="text1601"
       y="52.775417"
       x="51.093472"
       style="font-style:normal;font-variant:normal;font-weight:normal;font-stretch:normal;font-size:2.23581576px;line-height:1.25;font-family:Daniel;-inkscape-font-specification:'Daniel, Normal';font-variant-ligatures:normal;font-variant-caps:normal;font-variant-numeric:normal;font-feature-settings:normal;text-align:justify;letter-spacing:0px;word-spacing:0px;writing-mode:lr-tb;text-anchor:start;fill:#000080;stroke-width:0.23955168"
       xml:space="preserve"><tspan
         style="font-style:normal;font-variant:normal;font-weight:normal;font-stretch:normal;font-size:2.23581576px;font-family:Daniel;-inkscape-font-specification:'Daniel, Normal';font-variant-ligatures:normal;font-variant-caps:normal;font-variant-numeric:normal;font-feature-settings:normal;text-align:justify;writing-mode:lr-tb;text-anchor:start;fill:#000080;stroke-width:0.23955168"
         y="52.775417"
         x="51.093472"
         id="tspan1599"
         sodipodi:role="line">Caixa 4, Sabons</tspan></text>
    <text
       xml:space="preserve"
       style="font-size:2.46944356px;line-height:1.25;font-family:'Khmer Mondulkiri';-inkscape-font-specification:'Khmer Mondulkiri, Normal';text-align:justify;letter-spacing:0px;word-spacing:0px;writing-mode:lr-tb;stroke-width:0.26458332"
       x="63.103123"
       y="45.385414"
       id="text1624"><tspan
         sodipodi:role="line"
         id="tspan1622"
         x="63.103123"
         y="47.344791"
         style="stroke-width:0.26458332" /></text>
    <text
       xml:space="preserve"
       style="font-style:italic;font-variant:normal;font-weight:bold;font-stretch:normal;font-size:4.53279543px;line-height:1.25;font-family:'Noto Serif Display';-inkscape-font-specification:'Noto Serif Display, Bold Italic';font-variant-ligatures:normal;font-variant-caps:normal;font-variant-numeric:normal;font-feature-settings:normal;text-align:justify;letter-spacing:0px;word-spacing:0px;writing-mode:lr-tb;text-anchor:start;stroke-width:0.16998"
       x="3.3993483"
       y="18.020487"
       id="text1656"><tspan
         sodipodi:role="line"
         id="tspan1654"
         x="3.3993483"
         y="18.020487"
         style="font-style:italic;font-variant:normal;font-weight:bold;font-stretch:normal;font-size:4.53279543px;font-family:'Noto Serif Display';-inkscape-font-specification:'Noto Serif Display, Bold Italic';font-variant-ligatures:normal;font-variant-caps:normal;font-variant-numeric:normal;font-feature-settings:normal;text-align:justify;writing-mode:lr-tb;text-anchor:start;stroke-width:0.16998">Pentinats Silvestre</tspan></text>
    <image
       sodipodi:absref="/home/jeroqui/Downloads/david_cut.png"
       y="8.497715"
       x="40.593769"
       id="image1666"
       xlink:href="file:///home/jeroqui/Downloads/david_cut.png"
       preserveAspectRatio="none"
       height="36.483788"
       width="32.803719" />
    <flowRoot
       xml:space="preserve"
       id="flowRoot1378"
       style="font-style:normal;font-variant:normal;font-weight:normal;font-stretch:normal;font-size:48px;line-height:1.25;font-family:Daniel;-inkscape-font-specification:'Daniel, Normal';font-variant-ligatures:normal;font-variant-caps:normal;font-variant-numeric:normal;font-feature-settings:normal;text-align:justify;letter-spacing:0px;word-spacing:0px;writing-mode:lr-tb;text-anchor:start;fill:#000080"
       transform="matrix(0.25086774,0.08408161,-0.08408161,0.25086774,12.866993,-13.449428)"><flowRegion
         id="flowRegion1380"
         style="font-style:normal;font-variant:normal;font-weight:normal;font-stretch:normal;font-size:48px;font-family:Daniel;-inkscape-font-specification:'Daniel, Normal';font-variant-ligatures:normal;font-variant-caps:normal;font-variant-numeric:normal;font-feature-settings:normal;text-align:justify;writing-mode:lr-tb;text-anchor:start;fill:#000080"><rect
           id="rect1382"
           width="64.977837"
           height="60.276695"
           x="197"
           y="5.5354309"
           style="font-style:normal;font-variant:normal;font-weight:normal;font-stretch:normal;font-size:48px;font-family:Daniel;-inkscape-font-specification:'Daniel, Normal';font-variant-ligatures:normal;font-variant-caps:normal;font-variant-numeric:normal;font-feature-settings:normal;text-align:justify;writing-mode:lr-tb;text-anchor:start;fill:#000080" /></flowRegion><flowPara
         id="flowPara1384"
         style="font-style:normal;font-variant:normal;font-weight:normal;font-stretch:normal;font-size:48px;font-family:Daniel;-inkscape-font-specification:'Daniel, Normal';font-variant-ligatures:normal;font-variant-caps:normal;font-variant-numeric:normal;font-feature-settings:normal;text-align:justify;writing-mode:lr-tb;text-anchor:start;fill:#000080">D</flowPara></flowRoot>    <g
       id="g1691"
       transform="matrix(0.00211897,0,0,-0.00211897,11.269355,16.396999)"
       style="fill:#666666;stroke:none">
      <path
         id="path1675"
         d="m 6264,4755 c -379,-84 -675,-351 -775,-700 -30,-103 -37,-296 -15,-405 25,-124 71,-232 141,-335 l 62,-91 -141,-100 c -77,-54 -146,-100 -153,-102 -8,-2 -57,28 -111,66 -394,280 -651,420 -893,488 -125,35 -327,44 -442,20 -238,-49 -419,-178 -507,-361 -49,-103 -61,-157 -61,-271 0,-182 48,-294 185,-430 77,-76 107,-99 186,-138 146,-71 195,-81 400,-80 159,0 183,3 260,26 47,15 107,36 135,48 l 50,21 -47,29 -46,29 -52,-20 c -107,-41 -210,-59 -334,-59 -208,0 -338,51 -471,184 -130,130 -194,289 -182,450 25,339 324,488 759,377 254,-64 579,-227 894,-447 l 95,-66 -83,-56 c -109,-74 -262,-173 -315,-203 -24,-13 -42,-28 -40,-32 1,-5 18,-17 38,-29 l 36,-20 109,67 c 60,37 157,101 217,141 59,41 110,74 113,74 3,0 33,-20 67,-44 220,-156 522,-303 743,-362 206,-55 311,-64 452,-39 297,52 635,199 919,401 34,24 64,44 67,44 3,0 54,-33 113,-74 60,-40 157,-104 217,-141 l 109,-67 36,20 c 20,12 37,24 38,29 2,4 -16,19 -40,32 -53,30 -206,129 -315,203 l -83,56 95,66 c 650,454 1212,599 1491,388 173,-131 213,-384 97,-615 -51,-102 -171,-222 -272,-270 -110,-52 -179,-67 -316,-67 -124,0 -227,18 -334,59 l -52,20 -46,-29 -47,-29 50,-21 c 28,-12 88,-33 135,-48 77,-23 101,-26 260,-26 204,-1 251,9 399,80 80,39 109,60 186,138 139,137 185,245 185,432 0,114 -16,181 -64,279 -87,175 -270,303 -503,351 -115,24 -317,15 -442,-20 -242,-68 -499,-208 -893,-488 -54,-38 -103,-68 -111,-66 -7,2 -76,48 -153,102 l -141,100 62,91 c 103,152 155,319 155,499 0,192 -48,351 -155,511 -201,303 -616,496 -921,430 z m 251,-160 c 278,-81 471,-235 579,-466 61,-129 71,-182 71,-384 0,-195 -15,-278 -69,-383 -46,-89 -46,-89 -97,-55 -327,222 -622,269 -925,147 -86,-34 -189,-90 -273,-147 -43,-29 -44,-29 -59,-11 -25,33 -70,136 -88,199 -21,80 -31,343 -15,427 63,334 286,567 642,672 106,32 127,32 234,1 z m 20,-1180 c 47,-9 121,-29 164,-45 84,-33 281,-145 281,-160 0,-18 -159,-136 -233,-172 -113,-56 -170,-67 -347,-67 -176,0 -234,11 -346,65 -71,35 -234,156 -234,174 0,5 46,37 102,70 222,131 404,171 613,135 z m -737,-306 c 110,-100 224,-166 349,-200 66,-19 104,-22 253,-22 149,0 187,3 253,22 126,34 239,100 350,201 l 57,52 118,-83 c 64,-45 127,-90 139,-98 12,-9 23,-19 23,-22 0,-13 -224,-152 -353,-219 -171,-89 -313,-145 -462,-183 l -120,-30 -100,23 c -144,32 -298,91 -471,179 -142,73 -374,215 -374,230 0,5 270,200 279,201 2,0 28,-23 59,-51 z"
         inkscape:connector-curvature="0"
         style="fill:#666666" />
      <path
         id="path1677"
         d="m 2830,3213 c -81,-6 -227,-33 -312,-57 -462,-135 -734,-523 -653,-934 46,-230 207,-411 425,-477 117,-35 348,-30 472,11 90,29 134,97 90,137 -39,35 -105,11 -125,-44 -9,-28 -101,-44 -242,-43 -116,0 -137,3 -198,27 -155,61 -262,178 -303,332 -18,66 -17,206 1,275 42,159 169,309 332,393 257,132 656,194 979,151 l 41,-6 11,84 c 7,45 14,93 18,104 5,19 1,22 -38,28 -143,21 -357,30 -498,19 z"
         inkscape:connector-curvature="0"
         style="fill:#666666" />
      <path
         id="path1679"
         d="m 9615,3211 c -173,-17 -187,-21 -181,-45 4,-11 11,-59 18,-104 l 11,-84 41,6 c 241,32 564,2 797,-74 156,-51 263,-113 354,-205 124,-124 175,-242 175,-406 0,-220 -116,-388 -325,-469 -109,-43 -415,-29 -432,19 -20,56 -92,81 -126,43 -40,-44 3,-107 91,-136 124,-41 355,-46 472,-11 351,106 524,485 395,868 -85,250 -320,455 -622,542 -46,14 -122,31 -170,40 -103,18 -383,27 -498,16 z"
         inkscape:connector-curvature="0"
         style="fill:#666666" />
      <path
         id="path1681"
         d="m 3500,3123 c -5,-21 -13,-68 -16,-105 l -7,-66 44,-12 c 90,-23 267,-84 368,-127 242,-103 463,-225 973,-539 688,-424 880,-522 1163,-593 413,-104 809,-40 1260,206 177,96 273,154 655,388 509,313 730,435 971,538 100,42 278,104 367,127 38,10 42,14 42,42 0,41 -19,151 -29,167 -7,10 -28,7 -106,-14 -292,-79 -627,-247 -1141,-570 -642,-405 -807,-502 -1019,-598 -477,-217 -779,-216 -1260,5 -184,84 -415,217 -835,483 -566,357 -825,501 -1087,603 -107,42 -299,102 -325,102 -4,0 -12,-17 -18,-37 z"
         inkscape:connector-curvature="0"
         style="fill:#666666" />
      <path
         id="path1683"
         d="m 41,2103 c -17,-21 -31,-41 -31,-45 0,-5 425,-8 945,-8 h 944 l -18,43 -18,42 -896,3 -895,2 z"
         inkscape:connector-curvature="0"
         style="fill:#666666" />
      <path
         id="path1685"
         d="m 2020,2135 c 0,-2 7,-23 16,-45 l 16,-40 h 1392 1393 l 31,39 c 18,22 32,42 32,45 0,3 -648,6 -1440,6 -792,0 -1440,-2 -1440,-5 z"
         inkscape:connector-curvature="0"
         style="fill:#666666" />
      <path
         id="path1687"
         d="m 7900,2134 c 0,-3 14,-24 31,-45 l 31,-39 h 1393 1393 l 16,40 c 9,22 16,43 16,45 0,3 -648,5 -1440,5 -792,0 -1440,-3 -1440,-6 z"
         inkscape:connector-curvature="0"
         style="fill:#666666" />
      <path
         id="path1689"
         d="m 10921,2098 -18,-43 940,-3 c 517,-1 943,0 945,3 3,3 -8,22 -25,43 l -30,37 -897,3 -897,2 z"
         inkscape:connector-curvature="0"
         style="fill:#666666" />
    </g>
    <g
       id="g1726"
       transform="matrix(0.00252173,0,0,-0.00252173,3.4913242,37.750078)"
       style="fill:#666666;stroke:none">
      <path
         id="path1724"
         d="M 0,4685 V 4500 H 175 350 V 4370 4240 H 175 0 l 2,-1037 3,-1038 173,-3 172,-2 V 2035 1910 H 175 0 v -190 -190 h 210 210 v 155 155 h 80 80 v -140 -140 h 5820 9807.012 v 140 140 h 80 80 v -155 -155 h 210 210 v 190 190 h -175 -175 v 125 125 l 173,2 172,3 3,1038 2,1037 h -175 -175 v 130 130 h 175 175 v 185 185 h -210 -210 v -150 -150 h -80 -80 v 140 140 H 6400 580 v -140 -140 h -80 -80 v 150 150 H 210 0 Z m 350,5 V 4570 H 210 70 v 120 120 h 140 140 z m 16367.012,0 v -120 h -140 -140 v 120 120 h 140 140 z m -590,-20 v -100 h -170 -170 v -165 -166 l -117,3 -118,3 -3,163 -2,162 h -178 -177 l 3,-205 3,-205 h 134 135 v -105 -105 h -220 -220 l -2,308 -3,307 -382,3 -383,2 v -35 -35 h 350 350 v -310 -310 h 255 255 v -125 -125 h 160 160 v -425 -424 l -157,-3 -158,-3 -3,-122 -3,-123 -252,-2 -252,-3 -3,-307 -2,-308 h -350 -350 v -35 -35 h 385 385 v 310 310 h 220 220 v -105 -104 l -135,-3 -136,-3 v -205 -205 l 176,-3 175,-2 v 165 165 h 120 120 v -160 -160 h 170 170 V 1740 1640 H 6400 660 v 100 100 h 170 170 v 160 160 h 120 120 v -165 -165 l 175,2 176,3 v 205 205 l -136,3 -135,3 v 104 105 h 220 220 v -310 -310 h 385 385 v 35 35 h -350 -350 l -2,307 -3,308 -252,3 -252,2 -3,123 -3,122 -157,3 -158,3 v 424 425 h 160 160 v 125 125 h 255 255 v 310 310 h 350 350 v 35 35 l -382,-2 -383,-3 -3,-307 -2,-308 h -220 -220 v 105 105 h 135 134 l 3,205 3,205 h -177 -178 l -2,-162 -3,-163 -117,-3 -118,-3 v 166 165 H 830 660 v 100 100 h 5740 9727.012 z M 575,4370 v -125 l -77,-3 -78,-3 v 131 131 l 78,-3 77,-3 z m 363,3 -3,-128 -137,-3 -138,-3 v 131 130 h 140 141 z m 15189.012,-3 v -131 l -137,3 -138,3 -3,128 -3,127 h 141 140 z m 240,0 v -131 l -77,3 -78,3 -3,114 c -1,63 0,121 2,128 4,9 28,13 81,13 h 75 z M 1510,4365 v -125 h -95 -95 v 125 125 h 95 95 z m 13957.012,0 v -125 h -95 -95 v 125 125 h 95 95 z M 350,4020 v -140 h 115 116 l -3,-82 -3,-83 -142,-3 -143,-3 v -214 -215 h 185 185 v 175 175 H 800 940 V 3205 2780 H 800 660 v 175 175 H 475 290 v -220 -220 h 145 146 l -3,-81 -3,-80 -110,-2 -110,-2 -3,-137 -3,-138 H 220 90 v 955 955 h 130 130 z m 230,35 v -105 h -80 -80 v 105 105 h 80 80 z m 360,0 V 3950 H 800 660 v 105 105 h 140 140 z m 300,0 v -105 h -120 -120 v 105 105 h 120 120 z m 14547.012,0 v -105 h -120 -120 v 105 105 h 120 120 z m 340,0 v -105 h -140 -140 v 105 105 h 140 140 z m 240,0 v -105 h -80 -80 v 105 105 h 80 80 z m 330,-850 v -955 h -130 -129 l -3,138 -3,137 -110,2 -110,2 -3,80 -3,81 h 146 145 v 220 220 h -185 -185 v -175 -175 h -140 -140 v 425 425 h 140 140 v -175 -175 h 185 185 v 215 214 l -142,3 -143,3 -3,83 -3,82 h 116 115 v 140 140 h 130 130 z M 938,3798 l -3,-83 -137,-3 -138,-3 v 86 85 h 140 141 z m 300,0 -3,-83 h -115 -115 l -3,83 -3,82 h 121 121 z m 14547.012,0 -3,-83 h -115 -115 l -3,83 -3,82 h 121 121 z m 342,-3 v -86 l -137,3 -138,3 -3,83 -3,82 h 141 140 z M 578,3498 l -3,-133 -102,-3 -103,-3 v 136 135 h 105 106 z m 15839.012,-3 v -136 l -102,3 -103,3 -3,133 -3,132 h 106 105 z M 578,2913 581,2780 H 475 370 v 128 c 0,71 3,132 7,136 4,4 50,5 103,4 l 95,-3 z m 15837.012,0 3,-133 h -106 -105 v 128 c 0,71 3,132 7,136 4,4 50,5 103,4 l 95,-3 z M 938,2608 c -2,-46 -6,-82 -10,-80 -5,1 -66,2 -138,2 H 660 v 80 80 h 140 141 z m 300,1 -3,-81 h -115 -115 l -3,81 -3,81 h 121 121 z m 14547.012,0 -3,-81 h -115 -115 l -3,81 -3,81 h 121 121 z m 342,1 v -80 h -130 c -71,0 -133,-1 -137,-2 -5,-2 -9,34 -11,80 l -3,82 h 141 140 z M 578,2353 l 3,-103 h -81 -80 v 105 106 l 78,-3 77,-3 z m 362,2 V 2250 H 800 660 v 105 105 h 140 140 z m 300,0 v -105 h -120 -120 v 105 105 h 120 120 z m 14547.012,0 v -105 h -120 -120 v 105 105 h 120 120 z m 340,0 v -105 h -140 -140 v 105 105 h 140 140 z m 240,0 v -105 h -80 -80 v 98 c 0,54 3,102 7,105 3,4 39,7 80,7 h 73 z M 580,2035 v -125 h -80 -80 v 125 125 h 80 80 z m 360,0 V 1910 H 800 660 v 125 125 h 140 140 z m 570,5 v -120 h -95 -95 v 120 120 h 95 95 z m 13957.012,0 v -120 h -95 -95 v 120 120 h 95 95 z m 660,-5 v -125 h -140 -140 v 125 125 h 140 140 z m 240,0 v -125 h -80 -80 v 125 125 h 80 80 z M 350,1720 V 1600 H 210 70 v 120 120 h 140 140 z m 16367.012,0 v -120 h -140 -140 v 120 120 h 140 140 z"
         inkscape:connector-curvature="0"
         sodipodi:nodetypes="cccccccccccccccccccccccccccccccccccccccccccccccccccccccccccccccccccccccccccccccccccccccccccccccccccccccccccccccccccccccccccccccccccccccccccccccccccccccccccccccccccccccccccccccccccccccccccccccccccccccccccccccccccccccccccccccccccccccccccccccccccccccccccccccccccccccccccccccccccccsccccccccccccccccccccccccccccccccccccccccccccccccccccccccccccccccccccccccccccccccccccccccccccccccccccccccccccccccccccccccccccccccccccccccccccccccccccccccccccccccccccccccccccccccccccccccccccccccccccccccccccccccccccccsscccccccsscccccsccccccccccccccccccccccccccscccccccccccccccccccccccccccccccccccccccccccccccccccccccscsccccccccccccccccccccccccccccccccccccccccccccccccccsccccccccccccccccccccccc"
         style="fill:#666666" />
    </g>
    <text
       id="text1738"
       y="38.502609"
       x="4.5240264"
       style="font-style:normal;font-variant:normal;font-weight:normal;font-stretch:normal;font-size:1.92968059px;line-height:1.25;font-family:'EB Garamond';-inkscape-font-specification:'EB Garamond, Normal';font-variant-ligatures:normal;font-variant-caps:normal;font-variant-numeric:normal;font-feature-settings:normal;text-align:justify;letter-spacing:0px;word-spacing:0px;writing-mode:lr-tb;text-anchor:start;fill:#000000;stroke-width:0.18090689"
       xml:space="preserve"><tspan
         style="font-style:normal;font-variant:normal;font-weight:normal;font-stretch:normal;font-size:1.92968059px;font-family:'EB Garamond';-inkscape-font-specification:'EB Garamond, Normal';font-variant-ligatures:normal;font-variant-caps:normal;font-variant-numeric:normal;font-feature-settings:normal;text-align:justify;writing-mode:lr-tb;text-anchor:start;fill:#000000;stroke-width:0.18090689"
         y="38.502609"
         x="4.5240264"
         id="tspan1736"
         sodipodi:role="line">Assistent Regional: M. Vives</tspan></text>
    <text
       xml:space="preserve"
       style="font-style:normal;font-variant:normal;font-weight:normal;font-stretch:normal;font-size:1.92968059px;line-height:1.25;font-family:'EB Garamond';-inkscape-font-specification:'EB Garamond, Normal';font-variant-ligatures:normal;font-variant-caps:normal;font-variant-numeric:normal;font-feature-settings:normal;text-align:justify;letter-spacing:0px;word-spacing:0px;writing-mode:lr-tb;text-anchor:start;fill:#000000;stroke-width:0.18090689"
       x="4.5240264"
       y="41.148445"
       id="text1742"><tspan
         sodipodi:role="line"
         id="tspan1740"
         x="4.5240264"
         y="41.148445"
         style="font-style:normal;font-variant:normal;font-weight:normal;font-stretch:normal;font-size:1.92968059px;font-family:'EB Garamond';-inkscape-font-specification:'EB Garamond, Normal';font-variant-ligatures:normal;font-variant-caps:normal;font-variant-numeric:normal;font-feature-settings:normal;text-align:justify;writing-mode:lr-tb;text-anchor:start;fill:#000000;stroke-width:0.18090689">Plaça dels Països Catalans, 3. 2n 1a</tspan></text>
    <text
       id="text1746"
       y="43.265114"
       x="4.5240264"
       style="font-style:normal;font-variant:normal;font-weight:normal;font-stretch:normal;font-size:1.92968059px;line-height:1.25;font-family:'EB Garamond';-inkscape-font-specification:'EB Garamond, Normal';font-variant-ligatures:normal;font-variant-caps:normal;font-variant-numeric:normal;font-feature-settings:normal;text-align:justify;letter-spacing:0px;word-spacing:0px;writing-mode:lr-tb;text-anchor:start;fill:#000000;stroke-width:0.18090689"
       xml:space="preserve"><tspan
         style="font-style:normal;font-variant:normal;font-weight:normal;font-stretch:normal;font-size:1.92968059px;font-family:'EB Garamond';-inkscape-font-specification:'EB Garamond, Normal';font-variant-ligatures:normal;font-variant-caps:normal;font-variant-numeric:normal;font-feature-settings:normal;text-align:justify;writing-mode:lr-tb;text-anchor:start;fill:#000000;stroke-width:0.18090689"
         y="43.265114"
         x="4.5240264"
         id="tspan1744"
         sodipodi:role="line">Pirineu, Barcelona.</tspan></text>
  </g>
</svg>
